<svg height="512pt" viewBox="-158 0 512 512" width="512pt" xmlns="http://www.w3.org/2000/svg"><path d="m120.5 7.5h-46c-2.210938 0-4 1.789062-4 4v52c0 2.210938 1.789062 4 4 4h46c2.210938 0 4-1.789062 4-4v-52c0-2.210938-1.789062-4-4-4zm0 0" fill="#8d6e63"/><path d="m120.5 7.5h-30c2.210938 0 4 1.789062 4 4v52c0 2.210938-1.789062 4-4 4h30c2.210938 0 4-1.789062 4-4v-52c0-2.210938-1.789062-4-4-4zm0 0" fill="#795548"/><path d="m187.5 310.378906v164.121094c0 16.570312-13.429688 30-30 30h-120c-16.570312 0-30-13.429688-30-30v-164.121094c0-28.945312 10.175781-56.972656 28.75-79.171875 18.574219-22.203125 28.75-50.226562 28.75-79.175781v-106.382812c0-2.207032 1.789062-4 4-4h57c2.210938 0 4 1.792968 4 4v106.382812c0 28.949219 10.175781 56.972656 28.75 79.175781 18.574219 22.199219 28.75 50.226563 28.75 79.171875zm0 0" fill="#66bb6a"/><path d="m158.75 231.207031c-18.574219-22.203125-28.75-50.230469-28.75-79.175781v-106.382812c0-2.207032-1.789062-4-4-4h-30c2.210938 0 4 1.792968 4 4v106.382812c0 28.949219 10.175781 56.972656 28.75 79.175781 18.574219 22.199219 28.75 50.226563 28.75 79.171875v164.121094c0 16.566406-13.429688 30-30 30h30c16.570312 0 30-13.429688 30-30v-164.121094c0-28.945312-10.175781-56.972656-28.75-79.171875zm0 0" fill="#4caf50"/><path d="m130 146.5h-65v-100.851562c0-2.207032 1.789062-4 4-4h57c2.210938 0 4 1.792968 4 4zm0 0" fill="#607d8b"/><path d="m126.117188 41.648438h-29.992188c2.144531 0 3.882812 1.792968 3.882812 4v100.851562h29.992188v-100.851562c0-2.207032-1.738281-4-3.882812-4zm0 0" fill="#546e7a"/><path d="m7.5 320h180v40h-180zm0 0" fill="#4caf50"/><path d="m157.5 320h30v40h-30zm0 0" fill="#43a047"/><path d="m7.5 360h180v40h-180zm0 0" fill="#fdd835"/><path d="m157.5 360h30v40h-30zm0 0" fill="#fbc02d"/><path d="m7.5 400h180v40h-180zm0 0" fill="#f44336"/><path d="m157.5 400h30v40h-30zm0 0" fill="#e53935"/><path d="m164.789062 226.734375c-2.648437-3.1875-7.378906-3.625-10.5625-.976563-3.1875 2.648438-3.625 7.375-.976562 10.5625 17.25 20.765626 26.75 47.066407 26.75 74.058594v2.121094h-165v-2.121094c0-27.136718 9.589844-53.546875 27.003906-74.359375 19.242188-23.007812 30.027344-52.0625 30.480469-82.019531h50.03125c.285156 18.523438 4.585937 37.097656 12.480469 53.847656 1.761718 3.738282 6.226562 5.359375 9.980468 3.585938 3.75-1.765625 5.351563-6.234375 3.585938-9.980469-7.238281-15.355469-11.0625-32.445313-11.0625-49.421875v-106.382812c0-4.140626-2.203125-7.78125-5.5-9.804688v-24.34375c0-6.339844-5.160156-11.5-11.5-11.5h-46c-6.339844 0-11.5 5.160156-11.5 11.5v24.34375c-3.296875 2.023438-5.5 5.664062-5.5 9.804688v18.101562c0 4.144531 3.359375 7.5 7.5 7.5s7.5-3.355469 7.5-7.5v-14.601562h50v89.851562h-50v-43.25c0-4.144531-3.359375-7.5-7.5-7.5s-7.5 3.355469-7.5 7.5v56.28125c0 27.140625-9.589844 53.546875-27.003906 74.363281-19.664063 23.507813-30.496094 53.335938-30.496094 83.984375v164.121094c0 20.679688 16.820312 37.5 37.5 37.5h120c20.679688 0 37.5-16.820312 37.5-37.5v-164.121094c0-30.488281-10.730469-60.191406-30.210938-83.644531zm-47.789062-211.734375v19.148438h-39v-19.148438zm-102 352.5h165v25h-165zm165-40v25h-165v-25zm-22.5 169.5h-120c-12.40625 0-22.5-10.09375-22.5-22.5v-27h14.167969c4.140625 0 7.5-3.355469 7.5-7.5s-3.359375-7.5-7.5-7.5h-14.167969v-25h165v25h-118.832031c-4.144531 0-7.5 3.355469-7.5 7.5s3.355469 7.5 7.5 7.5h118.832031v27c0 12.40625-10.09375 22.5-22.5 22.5zm0 0"/></svg>