<svg height="480pt" viewBox="0 -72 480 480" width="480pt" xmlns="http://www.w3.org/2000/svg"><path d="m376.871094 270.984375c-.054688.3125-.085938.632813-.144532.953125.074219-.320312.074219-.640625.144532-.953125zm0 0" fill="#ffda44"/><path d="m379.296875 262.609375c-.144531.382813-.28125.796875-.425781 1.160156.144531-.386719.28125-.777343.425781-1.160156zm0 0" fill="#ffda44"/><path d="m376.726562 288.0625c.058594.320312.089844.640625.144532.953125-.070313-.3125-.070313-.632813-.144532-.953125zm0 0" fill="#ffda44"/><path d="m378.871094 296.230469c.144531.394531.28125.800781.425781 1.160156-.144531-.382813-.28125-.773437-.425781-1.160156zm0 0" fill="#ffda44"/><path d="m382.449219 304c.191406.335938.398437.65625.597656.984375-.199219-.367187-.40625-.6875-.597656-.984375zm0 0" fill="#ffda44"/><path d="m383.046875 255.054688c-.199219.328124-.40625.648437-.597656.984374.191406-.335937.398437-.65625.597656-.984374zm0 0" fill="#ffda44"/><path d="m408 234.800781-.433594.160157zm0 0" fill="#ffda44"/><path d="m400.3125 238.289062c-.136719.070313-.265625.160157-.390625.238282.125-.078125.253906-.128906.390625-.238282zm0 0" fill="#ffda44"/><path d="m387.792969 311.449219c-.144531-.160157-.296875-.3125-.433594-.480469.136719.167969.289063.320312.433594.480469zm0 0" fill="#ffda44"/><path d="m399.921875 321.472656c.125.078125.253906.167969.390625.238282-.136719-.070313-.265625-.160157-.390625-.238282zm0 0" fill="#ffda44"/><path d="m387.359375 249.03125c.136719-.167969.296875-.320312.441406-.480469-.144531.160157-.304687.3125-.441406.480469zm0 0" fill="#ffda44"/><path d="m407.527344 325.039062.433594.152344zm0 0" fill="#ffda44"/><path d="m407.527344 325.039062c-2.488282-.90625-4.894532-2.019531-7.199219-3.328124-.136719-.070313-.265625-.160157-.390625-.238282-4.566406-2.652344-8.664062-6.039062-12.128906-10.023437-.144532-.160157-.296875-.3125-.433594-.480469-1.59375-1.890625-3.035156-3.90625-4.3125-6.023438-.199219-.328124-.40625-.648437-.597656-.984374-1.214844-2.109376-2.269532-4.304688-3.152344-6.570313-.144531-.382813-.28125-.796875-.425781-1.160156-.855469-2.34375-1.523438-4.75-2-7.199219-.054688-.3125-.085938-.632812-.144531-.953125-.96875-5.332031-.96875-10.792969 0-16.125.058593-.320313.089843-.640625.144531-.953125.476562-2.449219 1.148437-4.855469 2-7.199219.144531-.394531.28125-.800781.425781-1.160156.882812-2.265625 1.9375-4.460937 3.152344-6.570313.191406-.335937.398437-.65625.597656-.980468 1.28125-2.117188 2.722656-4.132813 4.3125-6.027344.136719-.167969.296875-.320312.441406-.476562 3.457032-3.992188 7.550782-7.378907 12.121094-10.027344.125-.078125.253906-.167969.390625-.238282 2.304687-1.308593 4.710937-2.421874 7.199219-3.328124l.472656-.191407c2.601562-.921875 5.277344-1.617187 8-2.082031v-.71875h-176c26.507812 0 48 21.492188 48 48s-21.492188 48-48 48h176v-.71875c-2.722656-.460938-5.398438-1.160156-8-2.089844zm0 0" fill="#a0815c"/><path d="m192 280c0-26.507812 21.492188-48 48-48h-184c26.507812 0 48 21.492188 48 48s-21.492188 48-48 48h184c-26.507812 0-48-21.492188-48-48zm0 0" fill="#a0815c"/><path d="m288 280c0-26.507812-21.492188-48-48-48s-48 21.492188-48 48 21.492188 48 48 48 48-21.492188 48-48zm-32 0c0 8.835938-7.164062 16-16 16s-16-7.164062-16-16 7.164062-16 16-16 16 7.164062 16 16zm0 0" fill="#ff5023"/><path d="m256 280c0 8.835938-7.164062 16-16 16s-16-7.164062-16-16 7.164062-16 16-16 16 7.164062 16 16zm0 0" fill="#acabb1"/><path d="m56 232c-26.507812 0-48 21.492188-48 48 0-26.507812 21.492188-48 48-48zm0 0" fill="#ffda44"/><path d="m8 280c0 26.507812 21.492188 48 48 48-26.507812 0-48-21.492188-48-48zm0 0" fill="#ffda44"/><path d="m104 280c0-26.507812-21.492188-48-48-48s-48 21.492188-48 48 21.492188 48 48 48 48-21.492188 48-48zm-32 0c0 8.835938-7.164062 16-16 16s-16-7.164062-16-16 7.164062-16 16-16 16 7.164062 16 16zm0 0" fill="#ff5023"/><path d="m104 280c0 26.507812-21.492188 48-48 48 26.507812 0 48-21.492188 48-48zm0 0" fill="#ffda44"/><path d="m104 280c0-26.507812-21.492188-48-48-48 26.507812 0 48 21.492188 48 48zm0 0" fill="#ffda44"/><path d="m72 280c0 8.835938-7.164062 16-16 16s-16-7.164062-16-16 7.164062-16 16-16 16 7.164062 16 16zm0 0" fill="#acabb1"/><path d="m424 232c26.507812 0 48 21.492188 48 48 0-26.507812-21.492188-48-48-48zm0 0" fill="#ffda44"/><path d="m416 327.28125c2.640625.460938 5.316406.703125 8 .71875-2.683594.003906-5.359375-.234375-8-.71875zm0 0" fill="#ffda44"/><path d="m424 328c26.507812 0 48-21.492188 48-48 0 26.507812-21.492188 48-48 48zm0 0" fill="#ffda44"/><path d="m416 232.71875c2.640625-.484375 5.316406-.722656 8-.71875-2.683594.015625-5.359375.257812-8 .71875zm0 0" fill="#ffda44"/><path d="m424 232c-2.683594-.003906-5.359375.234375-8 .71875-2.722656.460938-5.398438 1.15625-8 2.082031l-.433594.160157c-2.488281.902343-4.898437 2.015624-7.199218 3.328124-.136719.070313-.261719.160157-.390626.238282-4.566406 2.648437-8.664062 6.035156-12.121093 10.023437-.144531.160157-.304688.3125-.441407.480469-1.589843 1.890625-3.03125 3.90625-4.308593 6.023438-.203125.328124-.410157.648437-.601563.984374-1.214844 2.109376-2.269531 4.304688-3.152344 6.570313-.144531.382813-.28125.796875-.421874 1.160156-.855469 2.34375-1.527344 4.75-2 7.199219-.058594.3125-.089844.632812-.144532.953125-.972656 5.332031-.972656 10.792969 0 16.125.054688.320313.085938.640625.144532.953125.476562 2.449219 1.148437 4.855469 2 7.199219.140624.386719.277343.800781.421874 1.160156.882813 2.265625 1.9375 4.460937 3.152344 6.570313.191406.335937.398438.65625.601563.980468 1.277343 2.121094 2.71875 4.132813 4.308593 6.027344.136719.167969.289063.320312.433594.476562 3.464844 3.988282 7.5625 7.375 12.128906 10.027344.128907.078125.253907.167969.390626.238282 2.304687 1.308593 4.710937 2.421874 7.199218 3.328124l.433594.152344c2.597656.9375 5.277344 1.648438 8 2.121094 2.640625.484375 5.316406.722656 8 .71875 26.507812 0 48-21.492188 48-48s-21.492188-48-48-48zm16 48c0 8.835938-7.164062 16-16 16s-16-7.164062-16-16 7.164062-16 16-16 16 7.164062 16 16zm0 0" fill="#ff5023"/><path d="m408 325.191406c2.601562.929688 5.277344 1.628906 8 2.089844-2.722656-.460938-5.398438-1.160156-8-2.089844zm0 0" fill="#ffda44"/><path d="m379.296875 297.390625c.882813 2.265625 1.9375 4.460937 3.152344 6.570313-1.214844-2.109376-2.269531-4.304688-3.152344-6.570313zm0 0" fill="#ffda44"/><path d="m376.726562 271.9375c-.464843 2.660156-.707031 5.359375-.726562 8.0625.019531-2.703125.261719-5.402344.726562-8.0625zm0 0" fill="#ffda44"/><path d="m378.871094 263.769531c-.851563 2.34375-1.523438 4.75-2 7.199219.476562-2.449219 1.144531-4.855469 2-7.199219zm0 0" fill="#ffda44"/><path d="m399.921875 321.472656c-4.570313-2.652344-8.667969-6.039062-12.128906-10.023437 3.460937 3.984375 7.558593 7.371093 12.128906 10.023437zm0 0" fill="#ffda44"/><path d="m376 280c.019531 2.703125.261719 5.402344.726562 8.0625-.464843-2.660156-.707031-5.359375-.726562-8.0625zm0 0" fill="#ffda44"/><path d="m387.800781 248.550781c3.457031-3.988281 7.550781-7.375 12.121094-10.023437-4.570313 2.648437-8.664063 6.035156-12.121094 10.023437zm0 0" fill="#ffda44"/><path d="m400.3125 321.710938c2.304688 1.308593 4.710938 2.421874 7.199219 3.328124-2.488281-.90625-4.898438-2.019531-7.199219-3.328124zm0 0" fill="#ffda44"/><path d="m382.449219 256.039062c-1.214844 2.109376-2.269531 4.304688-3.152344 6.570313.882813-2.265625 1.9375-4.460937 3.152344-6.570313zm0 0" fill="#ffda44"/><path d="m376.871094 289.015625c.476562 2.449219 1.144531 4.855469 2 7.199219-.851563-2.34375-1.519532-4.75-2-7.199219zm0 0" fill="#ffda44"/><path d="m407.527344 234.960938c-2.488282.90625-4.894532 2.019531-7.199219 3.328124 2.300781-1.3125 4.710937-2.425781 7.199219-3.328124zm0 0" fill="#ffda44"/><path d="m416 232.71875c-2.722656.464844-5.398438 1.160156-8 2.082031 2.601562-.925781 5.277344-1.621093 8-2.082031zm0 0" fill="#ffda44"/><path d="m383.046875 304.945312c1.277344 2.117188 2.71875 4.132813 4.3125 6.023438-1.59375-1.890625-3.035156-3.90625-4.3125-6.023438zm0 0" fill="#ffda44"/><path d="m387.359375 249.03125c-1.589844 1.894531-3.03125 3.90625-4.3125 6.023438 1.277344-2.117188 2.71875-4.132813 4.3125-6.023438zm0 0" fill="#ffda44"/><path d="m440 280c0 8.835938-7.164062 16-16 16s-16-7.164062-16-16 7.164062-16 16-16 16 7.164062 16 16zm0 0" fill="#acabb1"/><path d="m192 72v24c0 8.835938 7.164062 16 16 16h32v-56h-32c-8.835938 0-16 7.164062-16 16zm0 0" fill="#ffda44"/><path d="m272 168c8.835938 0 16-7.164062 16-16v-24c0-8.835938-7.164062-16-16-16h-32v56zm0 0" fill="#ffda44"/><path d="m240 8c-57.4375 0-104 46.5625-104 104s46.5625 104 104 104 104-46.5625 104-104-46.5625-104-104-104zm48 144c0 8.835938-7.164062 16-16 16h-32v-56h-32c-8.835938 0-16-7.164062-16-16v-24c0-8.835938 7.164062-16 16-16h32v56h32c8.835938 0 16 7.164062 16 16zm0 0" fill="#ffda44"/><g fill="#231f20"><path d="m217.472656 272h-9.472656v16h9.472656c2.417969 6.777344 7.75 12.109375 14.527344 14.527344v9.472656h16v-9.472656c6.777344-2.417969 12.109375-7.75 14.527344-14.527344h9.472656v-16h-9.472656c-2.417969-6.777344-7.75-12.109375-14.527344-14.527344v-9.472656h-16v9.472656c-6.777344 2.417969-12.109375 7.75-14.527344 14.527344zm22.527344 0c4.417969 0 8 3.582031 8 8s-3.582031 8-8 8-8-3.582031-8-8 3.582031-8 8-8zm0 0"/><path d="m33.472656 272h-9.472656v16h9.472656c2.417969 6.777344 7.75 12.109375 14.527344 14.527344v9.472656h16v-9.472656c6.777344-2.417969 12.109375-7.75 14.527344-14.527344h9.472656v-16h-9.472656c-2.417969-6.777344-7.75-12.109375-14.527344-14.527344v-9.472656h-16v9.472656c-6.777344 2.417969-12.109375 7.75-14.527344 14.527344zm22.527344 0c4.417969 0 8 3.582031 8 8s-3.582031 8-8 8-8-3.582031-8-8 3.582031-8 8-8zm0 0"/><path d="m424 224h-368c-30.929688 0-56 25.070312-56 56s25.070312 56 56 56h360l2.878906-.257812c1.6875.152343 3.394532.257812 5.121094.257812 30.929688 0 56-25.070312 56-56s-25.070312-56-56-56zm-144 56c0 22.089844-17.910156 40-40 40s-40-17.910156-40-40 17.910156-40 40-40c22.082031.027344 39.972656 17.917969 40 40zm-264 0c0-22.089844 17.910156-40 40-40s40 17.910156 40 40-17.910156 40-40 40c-22.082031-.027344-39.972656-17.917969-40-40zm79.199219 40c.074219-.070312.136719-.160156.214843-.230469.632813-.625 1.210938-1.304687 1.808594-1.953125.601563-.648437 1.265625-1.335937 1.847656-2.039062.585938-.707032 1.105469-1.433594 1.648438-2.160156.546875-.730469 1.105469-1.417969 1.601562-2.160157.496094-.746093.984376-1.601562 1.472657-2.402343.488281-.796876.941406-1.480469 1.367187-2.253907.425782-.777343.847656-1.710937 1.265625-2.578125.414063-.863281.796875-1.542968 1.125-2.34375.328125-.800781.695313-1.847656 1.035157-2.773437.292968-.800781.621093-1.601563.878906-2.402344.320312-1.023437.550781-2.078125.800781-3.117187.191406-.761719.421875-1.496094.582031-2.273438.257813-1.222656.410156-2.480469.585938-3.738281.078125-.621094.214844-1.222657.277344-1.847657.394531-3.828124.394531-7.6875 0-11.519531-.0625-.621093-.199219-1.222656-.277344-1.847656-.175782-1.246094-.328125-2.511719-.585938-3.734375-.160156-.800781-.390625-1.511719-.582031-2.273438-.265625-1.046874-.496094-2.105468-.800781-3.121093-.257813-.796875-.585938-1.597657-.878906-2.398438-.339844-.929687-.648438-1.871093-1.035157-2.777343-.382812-.902344-.75-1.597657-1.125-2.34375-.378906-.742188-.800781-1.734376-1.265625-2.574219-.464844-.839844-.914062-1.503907-1.367187-2.25-.457031-.742188-.953125-1.597657-1.472657-2.398438-.519531-.800781-1.082031-1.449219-1.601562-2.167969s-1.070312-1.457031-1.648438-2.152343c-.574218-.695313-1.230468-1.359375-1.847656-2.039063-.613281-.679687-1.175781-1.328125-1.808594-1.953125-.078124-.070312-.140624-.160156-.214843-.230469h105.6875c-10.796875 10.507813-16.886719 24.933594-16.886719 40 0 15.066407 6.089844 29.492188 16.886719 40zm200.800781-40c.003906-15.066406-6.085938-29.496094-16.886719-40h105.597657l-.117188.128906c-1.21875 1.199219-2.375 2.453125-3.472656 3.757813-.304688.359375-.578125.753906-.875 1.128906-.796875.96875-1.542969 1.953125-2.253906 2.96875-.375.550781-.71875 1.128906-1.089844 1.695313-.566406.878906-1.125 1.777343-1.644532 2.695312-.363281.632812-.691406 1.28125-1.019531 1.921875-.460937.902344-.910156 1.808594-1.328125 2.734375-.300781.679688-.582031 1.359375-.863281 2.058594-.375.941406-.726563 1.902344-1.054687 2.871094-.230469.695312-.464844 1.390624-.671876 2.101562-.304687 1.015625-.558593 2.058594-.800781 3.105469-.160156.679687-.328125 1.351562-.464843 2.046875-.222657 1.167968-.390626 2.402344-.542969 3.554687-.070313.589844-.175781 1.175781-.238281 1.765625-.167969 1.800782-.273438 3.625-.273438 5.464844s.105469 3.664062.273438 5.464844c.0625.597656.167968 1.175781.238281 1.773437.152343 1.195313.320312 2.402344.542969 3.546875.136718.6875.304687 1.351563.457031 2.03125.25 1.054688.503906 2.113282.800781 3.144532.199219.6875.421875 1.359374.648438 2.039062.335937 1 .703124 1.992188 1.09375 2.96875.257812.648438.53125 1.296875.800781 1.933594.449219.992187.929687 1.96875 1.425781 2.929687.292969.574219.582031 1.152344.894531 1.710938.601563 1.058593 1.238281 2.089843 1.902344 3.105469.273437.414062.53125.847656.800781 1.253906.96875 1.410156 1.992188 2.777344 3.082032 4.082031 1.167968 1.398437 2.398437 2.734375 3.703124 4h-105.601562c10.816406-10.492187 16.925781-24.917969 16.9375-39.984375zm128 40c-2.390625-.023438-4.773438-.265625-7.121094-.71875-1.257812-.261719-2.5-.582031-3.726562-.96875-1.28125-.359375-2.578125-.695312-3.800782-1.175781-.878906-.34375-1.703124-.800781-2.550781-1.175781-1.507812-.707032-2.96875-1.511719-4.375-2.402344-.578125-.367188-1.128906-.796875-1.683593-1.167969-1.53125-1.089844-2.988282-2.292969-4.351563-3.589844-.398437-.386719-.796875-.800781-1.175781-1.167969-1.347656-1.414062-2.59375-2.921874-3.726563-4.511718-.320312-.457032-.65625-.898438-.960937-1.359375-1.03125-1.621094-1.953125-3.3125-2.75-5.058594-.257813-.566406-.554688-1.101563-.800782-1.671875-.703124-1.785156-1.273437-3.617188-1.710937-5.488281-.152344-.621094-.378906-1.214844-.503906-1.847657-1.035157-5.089843-1.035157-10.335937 0-15.421874.125-.640626.359375-1.242188.511719-1.875.433593-1.851563 1-3.667969 1.695312-5.4375.238281-.609376.558594-1.167969.800781-1.761719.777344-1.703125 1.671875-3.355469 2.679688-4.933594.34375-.523437.71875-1.019531 1.078125-1.523437 1.078125-1.507813 2.257812-2.9375 3.535156-4.277344.472656-.496094.953125-.96875 1.449219-1.433594 1.261719-1.179688 2.597656-2.277344 4-3.289062.6875-.496094 1.375-1 2.105469-1.453126 1.242187-.769531 2.527343-1.46875 3.847656-2.097656 1.015625-.488281 2.015625-1 3.078125-1.40625 1.066406-.410156 2.199219-.707031 3.3125-1.03125 1.351562-.429687 2.722656-.78125 4.113281-1.058594 2.316406-.441406 4.671875-.671874 7.03125-.695312 22.089844 0 40 17.910156 40 40s-17.910156 40-40 40zm0 0"/><path d="m432 257.472656v-9.472656h-16v9.472656c-6.777344 2.417969-12.109375 7.75-14.527344 14.527344h-9.472656v16h9.472656c2.417969 6.777344 7.75 12.109375 14.527344 14.527344v9.472656h16v-9.472656c6.777344-2.417969 12.109375-7.75 14.527344-14.527344h9.472656v-16h-9.472656c-2.417969-6.777344-7.75-12.109375-14.527344-14.527344zm-8 30.527344c-4.417969 0-8-3.582031-8-8s3.582031-8 8-8 8 3.582031 8 8-3.582031 8-8 8zm0 0"/><path d="m352 112c0-61.855469-50.144531-112-112-112s-112 50.144531-112 112 50.144531 112 112 112c61.828125-.066406 111.933594-50.171875 112-112zm-112 96c-53.019531 0-96-42.980469-96-96s42.980469-96 96-96 96 42.980469 96 96c-.058594 52.996094-43.003906 95.941406-96 96zm0 0"/><path d="m272 64c4.417969 0 8 3.582031 8 8h16c0-13.253906-10.746094-24-24-24h-24v-16h-16v16h-24c-13.253906 0-24 10.746094-24 24v24c0 13.253906 10.746094 24 24 24h24v40h-24c-4.417969 0-8-3.582031-8-8h-16c0 13.253906 10.746094 24 24 24h24v16h16v-16h24c13.253906 0 24-10.746094 24-24v-24c0-13.253906-10.746094-24-24-24h-24v-40zm0 56c4.417969 0 8 3.582031 8 8v24c0 4.417969-3.582031 8-8 8h-24v-40zm-40-16h-24c-4.417969 0-8-3.582031-8-8v-24c0-4.417969 3.582031-8 8-8h24zm0 0"/><path d="m160 104h8v16h-8zm0 0"/><path d="m312 104h8v16h-8zm0 0"/><path d="m32 104h64v16h-64zm0 0"/><path d="m0 104h16v16h-16zm0 0"/><path d="m56 56h64v16h-64zm0 0"/><path d="m24 56h16v16h-16zm0 0"/><path d="m56 152h64v16h-64zm0 0"/><path d="m24 152h16v16h-16zm0 0"/><path d="m433.023438 139.121094 46.976562-27.121094-46.976562-27.121094v19.121094h-49.023438v16h49.023438zm0 0"/></g></svg>