<svg viewBox="-64 1 511 511.999" xmlns="http://www.w3.org/2000/svg"><path d="m255.933594 68.035156c-2.460938-5.652344-6.003906-10.953125-10.628906-15.578125-16.417969-16.421875-41.3125-19.183593-60.597657-8.320312-2.421875-7.054688-6.445312-13.683594-12.074219-19.3125-19.761718-19.765625-51.804687-19.765625-71.570312 0-5.917969 5.917969-10.050781 12.941406-12.421875 20.402343-20.496094-8.316406-44.863281-4.164062-61.488281 12.457032-21.539063 21.542968-22.109375 56.082031-1.765625 78.347656-4.398438 7.753906-5.210938 17.347656-2.617188 26.695312l28.367188 18.742188 34.78125-24.78125 34.78125 24.78125 34.78125-24.78125 34.78125 24.78125.507812-.363281" fill="#70dbe0"/><path d="m213.671875 130.867188c-9.671875-20.375-30.4375-34.464844-54.492187-34.464844-33.292969 0-60.285157 26.988281-60.285157 60.285156 0 3.339844.273438 6.617188.796875 9.8125l21.007813 14.96875 34.78125-24.78125 34.78125 24.78125" fill="#ff4f4f"/><path d="m225.042969 156.6875 34.785156 24.78125 34.78125-24.78125 34.78125 24.78125 14.070313-9.296875c36.167968-73.148437 42.457031-141.804687 12.761718-158.472656-32.269531-18.109375-94.804687 32.015625-139.679687 111.960937-10.535157 18.769532-19.160157 37.515625-25.773438 55.445313zm0 0" fill="#ffae55"/><path d="m329.390625 181.46875-34.785156-24.78125-34.78125 24.78125-34.78125-24.78125-34.78125 24.78125-34.78125-24.78125-34.78125 24.78125-34.78125-24.78125-34.78125 24.78125-29.46875-19.46875v340h337.1875v-340zm0 0" fill="#b06d5d"/><path d="m361.113281 4.980469c-19.398437-10.890625-46.480469-3.742188-76.257812 20.125-9.207031 7.382812-18.417969 16.125-27.429688 25.996093-1.554687-1.996093-3.238281-3.90625-5.050781-5.71875-16.542969-16.542968-41.070312-21.851562-62.644531-14.421874-2.695313-4.808594-6.046875-9.230469-10.027344-13.210938-11.445313-11.445312-26.664063-17.75-42.855469-17.75-16.1875 0-31.40625 6.304688-42.855468 17.75-4.445313 4.445312-8.179688 9.582031-11.046876 15.164062-22.394531-5.429687-46.21875 1.058594-62.863281 17.699219-23.683593 23.683594-25.984375 60.703125-6.359375 86.988281-2.433594 6.890626-3.058594 14.492188-1.8125 22.214844-.160156.707032-.242187 1.441406-.242187 2.183594v340c0 5.519531 4.476562 10 10 10h337.1875c5.523437 0 10-4.480469 10-10v-340c0-3.679688-2.019531-7.0625-5.261719-8.808594-.140625-.074218-.285156-.144531-.429688-.214844 11.886719-28.636718 19.335938-56.53125 21.339844-80.382812 2.8125-33.558594-5.492187-57.566406-23.390625-67.613281zm-326.890625 59.777343c13.320313-13.316406 33.203125-17.351562 50.65625-10.265624 2.582032 1.046874 5.484375.972656 8.007813-.214844 2.523437-1.183594 4.4375-3.367188 5.28125-6.019532 1.980469-6.226562 5.335937-11.730468 9.964843-16.363281 7.671876-7.671875 17.871094-11.894531 28.714844-11.894531 10.847656 0 21.042969 4.222656 28.710938 11.894531 4.417968 4.414063 7.675781 9.625 9.6875 15.492188.964844 2.808593 3.128906 5.042969 5.902344 6.097656 2.777343 1.054687 5.878906.824219 8.464843-.632813 15.796875-8.902343 35.792969-6.15625 48.621094 6.675782 2.214844 2.214844 4.148437 4.648437 5.777344 7.265625-10.867188 13.554687-21.296875 28.652343-30.914063 44.839843-13.191406-15.703124-32.929687-25.230468-53.917968-25.230468-35.589844 0-65.089844 26.59375-69.667969 60.953125-.554688-.214844-1.121094-.375-1.699219-.488281-1.253906-.242188-2.539062-.242188-3.792969 0-1.378906.265624-2.710937.824218-3.90625 1.675781l-29.191406 20.800781-19.273437-12.734375c-.917969-5.742187-.085938-11.199219 2.4375-15.644531 2.136718-3.765625 1.605468-8.480469-1.316407-11.679688-16.886719-18.480468-16.25-46.824218 1.453125-64.527344zm115.832032 83.527344c-.042969.03125-.085938.058594-.128907.085938-.082031.058594-.164062.113281-.246093.171875l-28.980469 20.644531-11.628907-8.285156c-.117187-1.398438-.175781-2.808594-.175781-4.214844 0-27.726562 22.558594-50.285156 50.285157-50.285156 17.691406 0 34.136718 9.457031 43.15625 24.457031-6.15625 11.691406-11.660157 23.46875-16.449219 35.210937l-24.601563-17.527343c-3.351562-2.386719-7.804687-2.472657-11.230468-.257813zm-118.386719 343.714844v-311.410156l13.957031 9.222656c.050781.035156.105469.066406.160156.101562.019532.015626.042969.027344.0625.039063.035156.023437.066406.042969.097656.0625.027344.015625.058594.035156.089844.050781.023438.015625.046875.03125.070313.042969.03125.019531.058593.035156.089843.050781.023438.015625.050782.03125.078126.042969.023437.015625.046874.027344.070312.039063.035156.019531.066406.035156.097656.054687.023438.011719.050782.027344.078125.039063.027344.015624.054688.03125.082031.042968.03125.015625.066407.03125.097657.050782.023437.011718.046875.023437.070312.035156.03125.015625.0625.027344.09375.042968.027344.011719.050781.023438.078125.039063.027344.011719.058594.023437.085938.039063.027344.011718.054687.023437.085937.035156.027344.015625.058594.027344.085938.039062.027343.011719.054687.023438.085937.035156l.082032.035157c.03125.011719.058593.023437.089843.035156s.058594.023437.085938.035156c.027343.011719.058593.019531.085937.03125.03125.011719.058594.023438.089844.03125.027344.011719.054688.023438.085938.03125.027343.011719.058593.023438.085937.03125.03125.011719.058594.019531.085937.027344.03125.011719.0625.023437.09375.03125.027344.011719.054688.019531.082032.027344.03125.011719.0625.019531.09375.027343.027344.011719.054687.019532.082031.027344.03125.007813.0625.019532.09375.027344.027344.007812.054687.015625.085937.023438.03125.007812.058594.015624.089844.023437.027344.007813.058594.015625.089844.023437.027344.007813.058594.015626.085938.019532.03125.007812.0625.015625.09375.023437.027343.007813.058593.015625.085937.019531.03125.007813.058594.011719.089844.019532.03125.007812.0625.015625.097656.019531.023437.007813.050781.011719.074219.015625.035156.007812.070312.015625.105468.019531.023438.007813.050782.011719.074219.015625.035157.003906.070313.011719.105469.019532.027344.003906.050781.007812.078125.011718.035156.003906.066406.007813.101563.015625.027343.003907.050781.003907.074218.007813.039063.007812.074219.011718.113282.015625.019531.003906.042968.003906.0625.007812.039062.003907.078124.011719.117187.015625.019531 0 .039063.003906.058594.003906.042969.003907.082031.011719.125.011719.015625.003907.03125.003907.050781.003907.042969.003906.085938.007812.128906.011718.015625 0 .03125.003906.050782.003906.042968.003907.089843.003907.132812.007813h.027344c.554687.03125 1.109375.011719 1.660156-.050781h.003906c.0625-.007813.125-.015625.183594-.023438h.003906c.0625-.007812.125-.015625.1875-.027344h.003906c.0625-.007812.121094-.019531.179688-.03125h.015625c.058594-.011718.113281-.023437.171875-.03125.003906-.003906.011719-.003906.015625-.003906.058594-.011718.113281-.023437.171875-.035156.003906 0 .011719-.003906.019531-.003906.054688-.011719.109375-.023438.164063-.035156.007812-.003907.015625-.007813.023437-.007813.054688-.011719.105469-.023437.160157-.039063.007812 0 .019531-.003906.027343-.007812.054688-.011719.105469-.023438.15625-.039062.011719-.003907.023438-.007813.03125-.007813.050781-.015625.101563-.03125.152344-.042969.011719-.003906.023437-.007812.03125-.011718.050781-.015626.101563-.03125.152344-.046876.007812 0 .019531-.003906.03125-.007812.050781-.015625.097656-.03125.144531-.050781.015625-.003907.027344-.007813.039062-.011719.050782-.015625.101563-.035156.148438-.050781l.03125-.011719c.050781-.015625.101562-.035156.152344-.054688.007812-.003906.019531-.007812.027344-.011718.046874-.019532.097656-.035156.144531-.054688.015625-.007812.023437-.011718.035156-.015625l.140625-.058593c.011719-.003907.027344-.011719.042969-.015626.046875-.019531.09375-.042968.140625-.0625.007812-.003906.019531-.011718.03125-.015624.046875-.019532.09375-.042969.140625-.0625.011719-.007813.023437-.011719.039062-.019532.042969-.019531.085938-.042968.128907-.0625.015624-.007812.03125-.015625.042968-.023437.042969-.019531.085938-.042969.128906-.0625l.046876-.023438c.042968-.023437.089843-.046875.132812-.074219.011719-.003906.023438-.011718.035156-.019531.042969-.019531.085938-.046875.128906-.070312.015626-.007813.03125-.015625.046876-.027344.039062-.023437.082031-.046875.125-.070313.011718-.007812.027343-.019531.039062-.027343.042969-.023438.085938-.050781.125-.074219.015625-.007812.027344-.019531.042969-.027344.039062-.023437.074219-.046875.113281-.070312.015625-.011719.035156-.023438.054688-.035156.039062-.027344.078124-.054688.121093-.082032.011719-.011718.027344-.019531.042969-.027344.050781-.039062.105469-.078124.160156-.113281l28.980469-20.648437 9.582031 6.828125 19.394532 13.820312c.34375.242188.695312.460938 1.054687.65625 3.15625 1.703125 7.007813 1.59375 10.070313-.335937.164062-.101563.324218-.207032.480468-.320313l28.980469-20.644531 28.980469 20.644531c1.757812 1.253907 3.785156 1.855469 5.792968 1.855469.125 0 .25-.003906.378907-.007812h.011719c.058593 0 .117187-.003907.175781-.007813h.011719c.054687-.003906.109374-.007813.164062-.011719.027344 0 .054688-.003906.082031-.003906.027344-.003906.054688-.003906.078125-.007812.039063-.003907.070313-.007813.109375-.011719.011719 0 .019531 0 .03125-.003907.707031-.070312 1.402344-.21875 2.082031-.441406.015626-.003906.027344-.007812.042969-.011718.027344-.011719.054688-.019532.085938-.03125l.09375-.035157c.019531-.003906.035156-.011719.054687-.015625.914063-.332031 1.789063-.796875 2.585938-1.390625l.3125-.222656c.007812-.003906.011718-.007813.015625-.011719l28.472656-20.285156 28.980469 20.644531c.269531.195313.550781.371094.832031.535157 3.074219 1.761718 6.863281 1.761718 9.9375 0 .285156-.164063.5625-.339844.832031-.535157l28.980469-20.644531 28.980469 20.644531c.578125.414063 1.191406.757813 1.824218 1.03125 1.269532.550781 2.628907.828125 3.984376.824219.804687 0 1.609374-.097656 2.394531-.292969.121093-.027343.242187-.0625.359375-.09375.960937-.277343 1.886718-.699219 2.75-1.269531l7.421875-4.902344 6.535156-4.316406v311.40625zm304.011719-326.671875-6.078126 4.011719-29.191406-20.796875c-.269531-.195313-.550781-.371094-.832031-.535157-3.074219-1.761718-6.863281-1.761718-9.9375 0-.285156.164063-.5625.339844-.835937.535157l-28.976563 20.644531-28.980469-20.644531c-.707031-.503907-1.460937-.902344-2.242187-1.203125-.0625-.023438-.121094-.042969-.183594-.066406-1.089844-.390626-2.234375-.585938-3.375-.585938-2.035156 0-4.066406.617188-5.804687 1.855469l-5.363282 3.820312c1.398438-2.894531 2.839844-5.785156 4.324219-8.671875l37.28125-10.472656c5.316406-1.496094 8.414063-7.015625 6.921875-12.332031-1.496094-5.316407-7.019531-8.414063-12.332031-6.921875l-18.105469 5.085937c5.265625-8.707031 10.761719-17.054687 16.425781-24.957031.398438-.0625.796875-.148438 1.195313-.257812l40.164062-11.285157c5.316406-1.496093 8.414063-7.015625 6.921875-12.332031-1.496093-5.316406-7.015625-8.414062-12.332031-6.921875l-14.734375 4.136719c9.125-10.261719 18.453125-19.265625 27.753906-26.722656 22.320313-17.890626 42.496094-24.730469 53.964844-18.289063 20.484375 11.5 20.175781 69.222656-15.648437 142.90625zm0 0"/><path d="m325.996094 425.5c-3.902344-3.902344-10.234375-3.902344-14.140625 0l-18.5 18.5h-206.183594l-18.5-18.5c-3.90625-3.902344-10.238281-3.902344-14.144531 0-3.90625 3.90625-3.90625 10.238281 0 14.144531l14.359375 14.355469-14.359375 14.355469c-3.90625 3.90625-3.90625 10.238281 0 14.144531 1.953125 1.953125 4.511718 2.929688 7.070312 2.929688s5.121094-.976563 7.070313-2.929688l18.5-18.5h206.1875l18.5 18.5c1.953125 1.953125 4.511719 2.929688 7.070312 2.929688 2.558594 0 5.117188-.976563 7.070313-2.929688 3.90625-3.90625 3.90625-10.238281 0-14.144531l-14.355469-14.355469 14.355469-14.355469c3.90625-3.90625 3.90625-10.238281 0-14.144531zm0 0"/><path d="m64.269531 263.710938h251.984375v91.308593h-251.984375zm0 0" fill="#ffd4b8"/><path d="m316.257812 365.019531h-251.988281c-5.523437 0-10-4.476562-10-10v-91.308593c0-5.523438 4.476563-10 10-10h251.984375c5.523438 0 10 4.476562 10 10v91.3125c.003906 5.519531-4.472656 9.996093-9.996094 9.996093zm-241.988281-20h231.984375v-71.308593h-231.984375zm0 0"/><path d="m276.210938 319.359375c-2.628907 0-5.210938-1.058594-7.070313-2.921875-.460937-.457031-.878906-.976562-1.238281-1.519531-.359375-.550781-.671875-1.128907-.921875-1.730469-.25-.597656-.4375-1.226562-.570313-1.867188-.128906-.648437-.199218-1.300781-.199218-1.949218 0-.660156.070312-1.3125.199218-1.960938.132813-.640625.320313-1.269531.570313-1.871094.25-.601562.5625-1.179687.921875-1.730468.359375-.539063.777344-1.046875 1.238281-1.507813.460937-.472656.972656-.878906 1.519531-1.25.542969-.359375 1.121094-.671875 1.730469-.921875.601563-.25 1.230469-.4375 1.871094-.570312 1.289062-.257813 2.621093-.257813 3.910156 0 .628906.132812 1.257813.320312 1.871094.570312.597656.25 1.179687.5625 1.71875.921875.550781.371094 1.058593.777344 1.519531 1.25.460938.460938.878906.96875 1.25 1.507813.359375.550781.671875 1.132812.921875 1.730468.25.609376.4375 1.230469.566406 1.871094.132813.648438.191407 1.300782.191407 1.960938 0 .648437-.058594 1.300781-.191407 1.949218-.128906.640626-.316406 1.269532-.566406 1.867188-.25.601562-.5625 1.183594-.921875 1.730469-.371094.542969-.789062 1.0625-1.25 1.519531-.460938.460938-.96875.882812-1.519531 1.242188-.539063.359374-1.121094.667968-1.71875.917968-.613281.25-1.242188.441406-1.871094.570313-.652344.132812-1.308594.191406-1.960937.191406zm0 0"/><path d="m239.214844 319.367188h-134.902344c-5.523438 0-10-4.480469-10-10 0-5.523438 4.476562-10 10-10h134.902344c5.523437 0 10 4.476562 10 10 0 5.519531-4.476563 10-10 10zm0 0"/></svg>