<?xml version="1.0" encoding="iso-8859-1"?>
<!-- Generator: Adobe Illustrator 19.0.0, SVG Export Plug-In . SVG Version: 6.00 Build 0)  -->
<svg version="1.1" id="Capa_1" xmlns="http://www.w3.org/2000/svg" xmlns:xlink="http://www.w3.org/1999/xlink" x="0px" y="0px"
	 viewBox="0 0 448 448" style="enable-background:new 0 0 448 448;" xml:space="preserve">
<rect x="32" y="32" style="fill:#EFEEEE;" width="416" height="256"/>
<polygon style="fill:#CBCBCB;" points="209.6,288 136,216 128,228.8 128,288 "/>
<path style="fill:#888888;" d="M48,48v224h384V48H48z M416,208c-27.2,0-48,20.8-48,48H112c0-27.2-20.8-48-48-48v-96
	c27.2,0,48-20.8,48-48h256c0,27.2,20.8,48,48,48V208z"/>
<polygon style="fill:#777777;" points="177.6,256 128,256 128,272 193.6,272 "/>
<circle style="fill:#010101;" cx="128" cy="160" r="32"/>
<path style="fill:#CDCCCC;" d="M286.4,232c11.2-14.4,17.6-33.6,17.6-56c0-44.8-28.8-80-64-80s-64,35.2-64,80
	c0,20.8,6.4,41.6,17.6,56H286.4z"/>
<circle style="fill:#676767;" cx="240" cy="160" r="32"/>
<rect x="112" y="144" style="fill:#EAEAEA;" width="32" height="32"/>
<circle style="fill:#FACE5A;" cx="80" cy="272" r="80"/>
<circle style="fill:#E5B751;" cx="80" cy="272" r="64"/>
<circle style="fill:#FACE5A;" cx="168" cy="344" r="72"/>
<circle style="fill:#E5B751;" cx="168" cy="344" r="56"/>
<path style="fill:#676767;" d="M240,200c-22.4,0-41.6,11.2-49.6,25.6c1.6,3.2,4.8,6.4,6.4,8c3.2,3.2,6.4,4.8,11.2,4.8h64
	c4.8,0,8-1.6,11.2-4.8l6.4-8C281.6,211.2,262.4,200,240,200z"/>
<path style="fill:#FACE5A;" d="M180.8,385.6h-22.4v-62.4h-9.6V304h30.4v81.6H180.8z"/>
<path style="fill:#499F61;" d="M352,128c-17.6,0-32,14.4-32,32s14.4,32,32,32s32-14.4,32-32S369.6,128,352,128z M368,176h-32v-32h32
	V176z"/>
<path style="fill:#DEDEDD;" d="M286.4,232c1.6-1.6,1.6-3.2,3.2-3.2L286.4,232z"/>
<path style="fill:#FACE5A;" d="M49.6,308.8l1.6-20.8c6.4,3.2,12.8,6.4,17.6,6.4c3.2,0,6.4-1.6,8-3.2c3.2-1.6,4.8-3.2,4.8-6.4
	s-1.6-4.8-3.2-6.4s-6.4-1.6-9.6-1.6c-4.8,0-9.6,1.6-14.4,3.2l6.4-49.6h41.6v20.8h-24l-1.6,8c1.6,0,3.2,0,3.2,0
	c6.4,0,12.8,3.2,17.6,8c4.8,4.8,6.4,11.2,6.4,19.2s-3.2,16-9.6,22.4s-14.4,8-22.4,8C64,315.2,56,312,49.6,308.8z"/>
<g>
</g>
<g>
</g>
<g>
</g>
<g>
</g>
<g>
</g>
<g>
</g>
<g>
</g>
<g>
</g>
<g>
</g>
<g>
</g>
<g>
</g>
<g>
</g>
<g>
</g>
<g>
</g>
<g>
</g>
</svg>
