<svg height="512" viewBox="0 0 64 64" width="512" xmlns="http://www.w3.org/2000/svg"><g id="Bag"><path d="m61 59v-30l-13 10h-32l-13-10v30a2 2 0 0 0 2 2h54a2 2 0 0 0 2-2z" fill="#a97c50"/><path d="m30 61h29a2 2 0 0 0 2-2v-22c0 13.266-13.865 24-31 24z" fill="#8b5e3c"/><path d="m48 39h-32l-13-10v2l13 10h32l13-10v-2z" fill="#8b5e3c"/><path d="m48 39 13-10v-6a2 2 0 0 0 -2-2h-54a2 2 0 0 0 -2 2v6l13 10z" fill="#c49a6c"/><path d="m34 35h-4a1 1 0 0 0 -1 1v3h6v-3a1 1 0 0 0 -1-1z" fill="#58595b"/><path d="m29 44a1 1 0 0 0 1 1h4a1 1 0 0 0 1-1v-5h-6z" fill="#808285"/><path d="m55 18a1 1 0 0 0 -1-1h-2a1 1 0 0 0 -1 1v3h4z" fill="#ffcd00"/><path d="m13 18a1 1 0 0 0 -1-1h-2a1 1 0 0 0 -1 1v3h4z" fill="#ffcd00"/><path d="m23 13a2 2 0 0 1 2-2h14a2 2 0 0 1 2 2v8h4v-8a6 6 0 0 0 -6-6h-14a6 6 0 0 0 -6 6v8h4z" fill="#58595b"/><path d="m59 20h-3v-2a2 2 0 0 0 -2-2h-2a2 2 0 0 0 -2 2v2h-4v-7a7.008 7.008 0 0 0 -7-7h-14a7.008 7.008 0 0 0 -7 7v7h-4v-2a2 2 0 0 0 -2-2h-2a2 2 0 0 0 -2 2v2h-3a3 3 0 0 0 -3 3v36a3 3 0 0 0 3 3h54a3 3 0 0 0 3-3v-36a3 3 0 0 0 -3-3zm-7-2h2v2h-2zm-32-5a5.006 5.006 0 0 1 5-5h14a5.006 5.006 0 0 1 5 5v7h-2v-7a3 3 0 0 0 -3-3h-14a3 3 0 0 0 -3 3v7h-2zm20 7h-16v-7a1 1 0 0 1 1-1h14a1 1 0 0 1 1 1zm-30-2h2v2h-2zm-6 5a1 1 0 0 1 1-1h54a1 1 0 0 1 1 1v5.508l-12.34 9.492h-11.66v-2a2 2 0 0 0 -2-2h-4a2 2 0 0 0 -2 2v2h-11.66l-12.34-9.492zm30 21h-4v-4h4zm0-6h-4v-2h4zm25 22h-54a1 1 0 0 1 -1-1v-27.97l11.391 8.762a.993.993 0 0 0 .609.208h12v4a2 2 0 0 0 2 2h4a2 2 0 0 0 2-2v-4h12a.993.993 0 0 0 .609-.208l11.391-8.762v27.97a1 1 0 0 1 -1 1z"/></g></svg>